<mxfile host="app.diagrams.net" modified="2023-05-20T17:28:32.820Z" agent="Mozilla/5.0 (Windows NT 10.0; Win64; x64) AppleWebKit/537.36 (KHTML, like Gecko) Chrome/113.0.0.0 Safari/537.36" etag="lXb-9NmJw-xpYwSuZewa" version="21.3.2" type="github">
  <diagram name="Page-1" id="Wi0sGnQAaPUsBwJjeVo8">
    <mxGraphModel dx="1434" dy="756" grid="1" gridSize="10" guides="1" tooltips="1" connect="1" arrows="1" fold="1" page="1" pageScale="1" pageWidth="827" pageHeight="1169" math="0" shadow="0">
      <root>
        <mxCell id="0" />
        <mxCell id="1" parent="0" />
        <mxCell id="sbuBIRVVwTEQC0wx6wax-1" value="&lt;font style=&quot;font-size: 20px;&quot;&gt;&lt;b&gt;Optimization Phase&lt;/b&gt;&lt;/font&gt;" style="text;html=1;strokeColor=none;fillColor=none;align=center;verticalAlign=middle;whiteSpace=wrap;rounded=0;" vertex="1" parent="1">
          <mxGeometry x="384" y="80" width="60" height="30" as="geometry" />
        </mxCell>
        <mxCell id="sbuBIRVVwTEQC0wx6wax-2" value="Choice of cost function" style="rounded=0;whiteSpace=wrap;html=1;fillColor=#d5e8d4;strokeColor=#82b366;" vertex="1" parent="1">
          <mxGeometry x="354" y="140" width="120" height="60" as="geometry" />
        </mxCell>
        <mxCell id="sbuBIRVVwTEQC0wx6wax-3" value="Weighted least squares" style="rounded=0;whiteSpace=wrap;html=1;fillColor=#fff2cc;strokeColor=#d6b656;" vertex="1" parent="1">
          <mxGeometry x="277" y="240" width="120" height="60" as="geometry" />
        </mxCell>
        <mxCell id="sbuBIRVVwTEQC0wx6wax-4" value="Derive from EOM" style="rounded=0;whiteSpace=wrap;html=1;fillColor=#fff2cc;strokeColor=#d6b656;" vertex="1" parent="1">
          <mxGeometry x="431" y="240" width="120" height="60" as="geometry" />
        </mxCell>
        <mxCell id="sbuBIRVVwTEQC0wx6wax-5" value="Cost function visualization" style="rounded=0;whiteSpace=wrap;html=1;fillColor=#d5e8d4;strokeColor=#82b366;" vertex="1" parent="1">
          <mxGeometry x="354" y="340" width="120" height="60" as="geometry" />
        </mxCell>
        <mxCell id="sbuBIRVVwTEQC0wx6wax-6" value="Grid search w/ convergence criteria" style="rounded=0;whiteSpace=wrap;html=1;fillColor=#fff2cc;strokeColor=#d6b656;" vertex="1" parent="1">
          <mxGeometry x="354" y="440" width="120" height="60" as="geometry" />
        </mxCell>
        <mxCell id="sbuBIRVVwTEQC0wx6wax-7" value="Constrained Optimization" style="rounded=0;whiteSpace=wrap;html=1;fillColor=#d5e8d4;strokeColor=#82b366;" vertex="1" parent="1">
          <mxGeometry x="354" y="540" width="120" height="60" as="geometry" />
        </mxCell>
        <mxCell id="sbuBIRVVwTEQC0wx6wax-8" value="Physiological Limitations" style="rounded=0;whiteSpace=wrap;html=1;fillColor=#fff2cc;strokeColor=#d6b656;" vertex="1" parent="1">
          <mxGeometry x="277" y="630" width="120" height="60" as="geometry" />
        </mxCell>
        <mxCell id="sbuBIRVVwTEQC0wx6wax-9" value="Inequality Constraints" style="rounded=0;whiteSpace=wrap;html=1;fillColor=#fff2cc;strokeColor=#d6b656;" vertex="1" parent="1">
          <mxGeometry x="431" y="630" width="120" height="60" as="geometry" />
        </mxCell>
      </root>
    </mxGraphModel>
  </diagram>
</mxfile>
